<svg xmlns="http://www.w3.org/2000/svg" viewBox="0 0 176 124"><defs><style>.cls-1{fill:#ee3124;}.cls-2{fill:#fff;}</style></defs><g id="Layer_2" data-name="Layer 2"><g id="Layer_1-2" data-name="Layer 1"><path class="cls-1" d="M172.3,19.4A22.27,22.27,0,0,0,156.7,3.7C143,0,88,0,88,0S33,0,19.2,3.7A22.1,22.1,0,0,0,3.6,19.4C0,33.2,0,62,0,62s0,28.8,3.7,42.6a22.27,22.27,0,0,0,15.6,15.7C33,124,88,124,88,124s55,0,68.8-3.7a22.1,22.1,0,0,0,15.6-15.7C176,90.8,176,62,176,62S176,33.2,172.3,19.4Z"/><polygon class="cls-2" points="70 88.2 70 35.8 116 62 70 88.2"/></g></g></svg>